<svg width="76" height="32" viewBox="0 0 76 32" fill="none" xmlns="http://www.w3.org/2000/svg">
<path fill-rule="evenodd" clip-rule="evenodd" d="M61.8138 13.7321C62.104 14.1626 62.1989 14.6523 62.2303 15.2028L62.2715 15.9366V21.0678L62.3136 21.8023C62.3978 23.002 63.4269 23.889 64.8332 23.9645L65.6832 24.0007V15.9366L65.7253 15.2028C65.7602 14.6584 65.8543 14.1595 66.149 13.726C66.4492 13.2813 66.8803 12.9124 67.3989 12.6563C67.9175 12.4002 68.5053 12.2658 69.1034 12.2668C69.7015 12.2677 70.2887 12.4039 70.8062 12.6616C71.3237 12.9194 71.7532 13.2896 72.0516 13.7352C72.3418 14.1656 72.4323 14.6646 72.4672 15.2028L72.5093 15.9343V21.0678L72.5514 21.8023C72.6392 23.0081 73.6603 23.8952 75.071 23.9645L75.921 24.0007V15.2028C75.921 13.6471 75.2023 12.1551 73.9229 11.0548C72.6435 9.95457 70.9082 9.33614 69.0985 9.33553C68.1299 9.33465 67.1722 9.51147 66.2895 9.85418C65.4067 10.1969 64.6192 10.6976 63.9796 11.3229C63.3396 10.6978 62.5521 10.1973 61.6694 9.85445C60.7868 9.51164 59.8293 9.33447 58.8607 9.33476C57.4437 9.33476 56.1288 9.70435 55.0396 10.3427C54.375 9.70512 52.8882 9.33476 52.0346 9.33476V24.0007L52.8882 23.9645C54.3159 23.8836 55.3478 23.0205 55.4033 21.8023L55.449 21.0678V15.9366L55.4911 15.2028C55.5269 14.6492 55.6165 14.1626 55.9076 13.7291C56.2081 13.2847 56.639 12.9159 57.1572 12.6594C57.6754 12.403 58.2628 12.2679 58.8607 12.2676C59.4591 12.2677 60.0469 12.4031 60.5652 12.6602C61.0835 12.9172 61.5141 13.2869 61.8138 13.7321ZM3.41171 23.9652L4.26531 24.0007H17.0603L17.0182 23.2692C16.9027 22.0634 15.9094 21.1825 14.5022 21.104L13.6486 21.0678H5.9725L16.2067 12.2669L16.1646 11.5361C16.0984 10.318 15.0629 9.43793 13.6486 9.37095L12.795 9.33784L0 9.33476L0.0420977 10.0686C0.15406 11.2628 1.16172 12.1621 2.55721 12.2314L3.41171 12.2676H11.0878L0.853599 21.0685L0.895696 21.8023C0.979892 23.0112 1.99472 23.8867 3.41171 23.9645V23.9652ZM48.6856 11.4815C49.4778 12.1624 50.1063 12.9708 50.5351 13.8605C50.9638 14.7503 51.1845 15.7039 51.1845 16.6669C51.1845 17.63 50.9638 18.5836 50.5351 19.4733C50.1063 20.3631 49.4778 21.1715 48.6856 21.8524C47.085 23.2272 44.9149 23.9995 42.6522 23.9995C40.3895 23.9995 38.2194 23.2272 36.6188 21.8524C33.2877 18.9888 33.2877 14.345 36.6188 11.4815C37.4103 10.8008 38.35 10.2608 39.3843 9.89233C40.4186 9.52386 41.5272 9.33414 42.6468 9.33399C43.7682 9.33332 44.8788 9.52271 45.915 9.89133C46.9511 10.2599 47.8926 10.8006 48.6856 11.4822V11.4815ZM46.2717 13.5581C47.2312 14.3836 47.7701 15.5027 47.7701 16.6696C47.7701 17.8365 47.2312 18.9557 46.2717 19.7811C45.3115 20.606 44.0096 21.0693 42.6522 21.0693C41.2947 21.0693 39.9929 20.606 39.0327 19.7811C38.0732 18.9557 37.5342 17.8365 37.5342 16.6696C37.5342 15.5027 38.0732 14.3836 39.0327 13.5581C39.9929 12.7333 41.2947 12.27 42.6522 12.27C44.0096 12.27 45.3115 12.7333 46.2717 13.5581ZM24.7436 9.33399C25.8633 9.33424 26.9719 9.52408 28.0062 9.89268C29.0405 10.2613 29.9802 10.8014 30.7716 11.4822C34.1036 14.345 34.1036 18.9896 30.7716 21.8524C29.171 23.2272 27.0009 23.9995 24.7382 23.9995C22.4755 23.9995 20.3054 23.2272 18.7048 21.8524C15.3737 18.9888 15.3737 14.345 18.7048 11.4815C19.4964 10.8008 20.4361 10.2608 21.4704 9.89233C22.5047 9.52386 23.6133 9.33414 24.7329 9.33399H24.7436ZM28.3577 13.5566C29.3175 14.3821 29.8566 15.5014 29.8566 16.6685C29.8566 17.8356 29.3175 18.9549 28.3577 19.7804C27.3975 20.6052 26.0957 21.0685 24.7382 21.0685C23.3808 21.0685 22.0789 20.6052 21.1187 19.7804C20.1593 18.9549 19.6203 17.8358 19.6203 16.6689C19.6203 15.502 20.1593 14.3828 21.1187 13.5574C22.0789 12.7325 23.3808 12.2692 24.7382 12.2692C26.0957 12.2692 27.3975 12.7325 28.3577 13.5574V13.5566Z" fill="#2D8CFF"/>
</svg>
