<svg width="76" height="32" viewBox="0 0 76 32" fill="none" xmlns="http://www.w3.org/2000/svg">
<g clip-path="url(#clip0_25949_244)">
<path d="M20.8603 20.7219C18.738 20.7219 17.333 19.1142 16.9411 18.4915C17.444 14.552 18.9155 13.3064 20.8603 13.3064C22.7829 13.3064 24.2767 14.8127 24.2767 17.0141C24.2767 19.2156 22.7829 20.7219 20.8603 20.7219ZM20.8603 10.8877C17.3996 10.8877 15.4622 13.0964 14.9076 15.3703C14.2791 14.2116 13.8132 12.6619 13.4509 11.2208H8.66652V17.0504C8.66652 19.1649 7.68304 20.7291 5.76043 20.7291C3.83782 20.7291 2.73602 19.1649 2.73602 17.0504L2.7582 11.2208H0V17.0504C0 18.7522 0.561993 20.2947 1.58985 21.3953C2.64729 22.5323 4.08924 23.1261 5.76043 23.1261C9.08801 23.1261 11.41 20.6278 11.41 17.0504V13.1326C11.7575 14.4216 12.5857 16.8983 14.1681 19.0708L12.6892 27.3191H15.4918L16.4679 21.475C16.7858 21.7357 17.126 21.9674 17.4883 22.1775C18.4274 22.7568 19.4997 23.0827 20.6089 23.1189C20.6089 23.1189 20.7789 23.1261 20.8677 23.1261C24.2988 23.1261 27.0274 20.5264 27.0274 17.0141C27.0274 13.5019 24.2914 10.8877 20.8603 10.8877Z" fill="#14A800"/>
<path d="M60.4881 12.468V11.2224H57.7817V22.7583H60.5251V18.2396C60.5251 15.4588 60.7839 13.4601 64.5922 13.7208V11.0848C62.8175 10.9544 61.4347 11.3165 60.4881 12.468Z" fill="#14A800"/>
<path d="M41.4403 11.2227L39.4511 19.2899L37.3289 11.2227H33.8386L31.7089 19.2899L29.7272 11.2227H26.9468L29.9934 22.7659H33.2914L35.5838 14.5683L37.8539 22.7659H41.1519L44.376 11.2227H41.4403Z" fill="#14A800"/>
<path d="M50.4175 20.7291C48.4654 20.7291 47.0012 19.2229 47.0012 17.0141C47.0012 14.8054 48.4728 13.3064 50.4175 13.3064C52.3402 13.3064 53.8339 14.8127 53.8339 17.0141C53.8339 19.2156 52.3402 20.7291 50.4175 20.7291ZM50.4175 10.8877C46.9642 10.8877 44.2578 13.5092 44.2578 17.0141C44.2578 20.5191 46.9642 23.1189 50.4175 23.1189C53.8487 23.1189 56.5773 20.5191 56.5773 17.0141C56.5773 13.5092 53.8561 10.8877 50.4175 10.8877Z" fill="#14A800"/>
<path d="M68.5267 17.0878H69.1627L72.993 22.7652H76.0915L71.6842 16.4722C73.8213 15.6539 75.2559 13.5176 75.2559 11.222H72.5198C72.5198 13.7131 70.5159 14.6546 68.5267 14.6546V6.66699H65.7759V22.7652H68.5193L68.5267 17.0878Z" fill="#14A800"/>
</g>
<defs>
<clipPath id="clip0_25949_244">
<rect width="76" height="32" fill="white"/>
</clipPath>
</defs>
</svg>
