<svg width="76" height="30" viewBox="0 0 76 30" fill="none" xmlns="http://www.w3.org/2000/svg">
<path d="M0 22.8567L7.80143 12.6342H0.924182C0.8659 12.3397 0.840922 12.0172 0.840922 11.6596C0.840922 11.316 0.8659 11.0005 0.924182 10.7131H12.056L12.1975 11.0286L4.33783 21.2721H11.7063C11.7646 21.5947 11.7896 21.9312 11.7896 22.2677C11.7896 22.5903 11.7646 22.8988 11.7063 23.1932H0.141541L0 22.8567Z" fill="#FF4A00"/>
<path d="M22.5135 14.9691C22.5135 14.0085 22.2221 13.3495 21.6476 12.9708C21.0731 12.5992 20.2322 12.4099 19.1331 12.4099C18.4587 12.4099 17.826 12.452 17.2431 12.5431C16.652 12.6343 16.0858 12.7465 15.5197 12.8937C15.1533 12.3609 14.9701 11.7158 14.9701 10.9726C15.6279 10.7973 16.3439 10.6571 17.1349 10.5589C17.9259 10.4608 18.6835 10.4117 19.4162 10.4117C21.3395 10.4117 22.8049 10.7833 23.8123 11.5195C24.8114 12.2557 25.3193 13.4406 25.3193 15.0602V22.8708C24.6449 22.9971 23.829 23.1373 22.8632 23.2705C21.8973 23.4107 20.9149 23.4738 19.9158 23.4738C18.9749 23.4738 18.1174 23.4037 17.3597 23.2565C16.602 23.1092 15.9526 22.8779 15.4197 22.5483C14.8869 22.2258 14.4789 21.8121 14.1875 21.3073C13.8961 20.8025 13.7546 20.1925 13.7546 19.4844C13.7546 18.7903 13.9211 18.1733 14.2624 17.6474C14.5955 17.1216 15.0534 16.6798 15.6362 16.3363C16.2107 15.9857 16.8768 15.7263 17.6345 15.558C18.3838 15.3898 19.1748 15.2986 20.0074 15.2986C20.6235 15.2986 21.1314 15.3126 21.5227 15.3337C21.914 15.3547 22.247 15.3898 22.5218 15.4178V14.9691H22.5135ZM22.5135 17.3319C22.2221 17.2968 21.8557 17.2688 21.4144 17.2337C20.9732 17.1987 20.5985 17.1847 20.2904 17.1847C19.0915 17.1847 18.184 17.374 17.5595 17.7456C16.9351 18.1172 16.6187 18.6851 16.6187 19.4493C16.6187 19.9331 16.7269 20.3187 16.9351 20.5922C17.1432 20.8656 17.4097 21.0759 17.726 21.2232C18.0424 21.3704 18.3921 21.4616 18.7834 21.4896C19.1664 21.5247 19.5328 21.5387 19.8825 21.5387C20.3237 21.5387 20.7817 21.5177 21.2562 21.4756C21.7308 21.4335 22.1471 21.3774 22.5135 21.2933V17.3319Z" fill="#FF4A00"/>
<path d="M28.4415 10.7136C28.633 10.6785 28.8328 10.6575 29.0326 10.6435C29.2325 10.6294 29.4406 10.6224 29.6571 10.6224C29.8486 10.6224 30.0484 10.6294 30.2649 10.6435C30.473 10.6575 30.6812 10.6855 30.8727 10.7136C30.8893 10.7486 30.9143 10.8468 30.9476 11.0151C30.9726 11.1833 31.0059 11.3656 31.0309 11.562C31.0558 11.7583 31.0892 11.9406 31.1141 12.1229C31.1391 12.3052 31.1558 12.4173 31.1558 12.4664C31.3473 12.207 31.5804 11.9546 31.8468 11.7092C32.1132 11.4638 32.438 11.2464 32.8126 11.0501C33.1873 10.8538 33.6119 10.6996 34.0865 10.5874C34.5611 10.4752 35.0856 10.4191 35.6601 10.4191C36.526 10.4191 37.3336 10.5383 38.0746 10.7837C38.8156 11.0291 39.4484 11.4007 39.9813 11.9125C40.5141 12.4243 40.9221 13.0764 41.2218 13.8617C41.5216 14.6469 41.6714 15.5795 41.6714 16.6522C41.6714 18.7977 40.9804 20.4734 39.6066 21.6793C38.2245 22.8853 36.2762 23.4953 33.7535 23.4953C33.3288 23.4953 32.8959 23.4742 32.4546 23.4251C32.0133 23.3761 31.622 23.313 31.2973 23.2288V28.9501C31.0642 28.9851 30.8227 29.0062 30.5563 29.0202C30.2982 29.0342 30.0567 29.0412 29.8486 29.0412C29.6404 29.0412 29.399 29.0342 29.1409 29.0202C28.8828 29.0062 28.6413 28.9781 28.4332 28.9501V10.7136H28.4415ZM31.3056 21.1535C31.672 21.2656 32.0466 21.3498 32.4296 21.3989C32.8126 21.4479 33.3122 21.469 33.9366 21.469C34.6277 21.469 35.2688 21.3778 35.8433 21.1885C36.4178 20.9992 36.9173 20.7118 37.3336 20.3261C37.7499 19.9335 38.0746 19.4427 38.3161 18.8537C38.5575 18.2648 38.6741 17.5566 38.6741 16.7503C38.6741 15.4532 38.391 14.4226 37.8249 13.6583C37.2587 12.8941 36.3262 12.5155 35.0357 12.5155C34.5527 12.5155 34.0948 12.5856 33.6452 12.7328C33.2039 12.8801 32.8043 13.0974 32.4629 13.3919C32.1132 13.6864 31.8385 14.051 31.622 14.4997C31.4055 14.9484 31.3056 15.4743 31.3056 16.0913V21.1535Z" fill="#FF4A00"/>
<path d="M45.2349 12.6061H43.3533C43.3117 12.4729 43.2867 12.3257 43.27 12.1574C43.2534 11.9891 43.245 11.8208 43.245 11.6596C43.245 11.4983 43.2534 11.33 43.27 11.1618C43.2867 10.9935 43.32 10.8393 43.3533 10.7131H48.0408V23.2002C47.8326 23.2353 47.5912 23.2563 47.3331 23.2704C47.075 23.2844 46.8335 23.2914 46.6254 23.2914C46.4339 23.2914 46.2091 23.2844 45.9427 23.2704C45.6845 23.2563 45.4431 23.2283 45.2349 23.2002V12.6061Z" fill="#FF4A00"/>
<path d="M54.1937 17.5494C54.2353 18.9096 54.6516 19.9122 55.4509 20.5433C56.2502 21.1743 57.4325 21.4898 58.9894 21.4898C60.3549 21.4898 61.6621 21.2865 62.8943 20.8798C63.0525 21.1252 63.1774 21.4197 63.269 21.7702C63.3689 22.1208 63.4188 22.4644 63.4438 22.8079C62.8111 23.0323 62.1117 23.2076 61.3457 23.3198C60.588 23.4319 59.7388 23.488 58.8146 23.488C57.4658 23.488 56.3085 23.3268 55.3427 23.0113C54.3769 22.6957 53.5859 22.247 52.9614 21.6721C52.337 21.0972 51.8791 20.4171 51.5877 19.6248C51.2962 18.8395 51.1547 17.9771 51.1547 17.0306C51.1547 16.1051 51.2962 15.2427 51.571 14.4364C51.8458 13.6301 52.2787 12.936 52.8532 12.34C53.4277 11.751 54.1604 11.2743 55.0346 10.9307C55.9088 10.5801 56.9496 10.4049 58.1402 10.4049C59.1643 10.4049 60.0552 10.5521 60.8295 10.8466C61.6038 11.1411 62.2449 11.5407 62.7694 12.0525C63.2856 12.5644 63.6853 13.1743 63.9517 13.8755C64.2181 14.5836 64.3597 15.3479 64.3597 16.1752C64.3597 16.3996 64.3513 16.645 64.3264 16.8904C64.3097 17.1428 64.2847 17.3601 64.2681 17.5354H54.1937V17.5494ZM61.5372 15.7475C61.5372 15.2918 61.4622 14.8571 61.3207 14.4434C61.1792 14.0297 60.9627 13.6721 60.6879 13.3637C60.4049 13.0552 60.0552 12.8098 59.6222 12.6204C59.1893 12.4311 58.673 12.34 58.0736 12.34C56.8996 12.34 56.0004 12.6415 55.3676 13.2374C54.7432 13.8404 54.3602 14.6748 54.227 15.7475H61.5372Z" fill="#FF4A00"/>
<path d="M67.5236 10.7131C67.7318 10.678 67.9399 10.657 68.1314 10.6429C68.3229 10.6289 68.5227 10.6219 68.7392 10.6219C68.9473 10.6219 69.1638 10.6289 69.372 10.6429C69.5801 10.657 69.7799 10.685 69.9465 10.7131C70.0047 10.9585 70.063 11.274 70.1213 11.6736C70.1796 12.0733 70.2046 12.4098 70.2046 12.6832C70.6125 12.1293 71.1454 11.6526 71.8115 11.2459C72.4776 10.8393 73.3268 10.6359 74.3675 10.6359C74.5257 10.6359 74.6839 10.6429 74.8421 10.65C75.0086 10.657 75.1419 10.671 75.2584 10.685C75.3001 10.8322 75.325 10.9865 75.3417 11.1478C75.3583 11.309 75.3667 11.4773 75.3667 11.6596C75.3667 11.8559 75.35 12.0592 75.325 12.2696C75.3001 12.4799 75.2584 12.6832 75.2251 12.8796C75.0669 12.8445 74.9087 12.8305 74.7505 12.8305C74.584 12.8305 74.4591 12.8305 74.3592 12.8305C73.843 12.8305 73.3435 12.8936 72.8689 13.0128C72.3943 13.132 71.9697 13.3493 71.595 13.6578C71.2203 13.9663 70.9206 14.387 70.6958 14.9269C70.471 15.4597 70.3628 16.1539 70.3628 16.9952V23.2002C70.1546 23.2353 69.9132 23.2563 69.6551 23.2704C69.3969 23.2844 69.1555 23.2914 68.9473 23.2914C68.7392 23.2914 68.4977 23.2844 68.2396 23.2704C67.9815 23.2563 67.7318 23.2283 67.4986 23.2002V10.7131H67.5236Z" fill="#FF4A00"/>
<path d="M50.7633 3.36544H47.9657L49.9473 1.69674C49.7891 1.51445 49.6143 1.33917 49.4311 1.1779C49.2396 1.01664 49.0398 0.869406 48.815 0.743202L46.8334 2.4119V0.0560907C46.5753 0.021034 46.3089 0 46.0341 0H46.0258C45.751 0 45.4846 0.021034 45.2265 0.0560907V2.4119L43.2449 0.743202C43.0285 0.876417 42.8203 1.02366 42.6288 1.1779C42.4373 1.33917 42.2708 1.50744 42.1126 1.69674L44.1025 3.36544H41.305C41.305 3.36544 41.2384 3.80716 41.2384 4.03853C41.2384 4.26991 41.2633 4.49427 41.305 4.71162H44.1025L42.1209 6.38032C42.429 6.74491 42.812 7.06743 43.2533 7.33386L45.2348 5.66516V8.02097C45.4929 8.05603 45.7594 8.07706 46.0341 8.07706H46.0425C46.3172 8.07706 46.5836 8.05603 46.8417 8.02097V5.66516L48.8233 7.33386C49.0398 7.20064 49.2479 7.05341 49.4394 6.89916C49.6309 6.7379 49.8058 6.56962 49.9557 6.38032L47.9741 4.71162H50.7716C50.8132 4.49427 50.8382 4.26991 50.8382 4.03853V4.03152C50.8299 3.80716 50.8132 3.58279 50.7633 3.36544ZM47.2331 4.04554C47.2331 4.34703 47.1665 4.6345 47.0499 4.90093C46.7335 4.99908 46.3921 5.05518 46.0341 5.05518C45.6761 5.05518 45.3347 4.99908 45.0184 4.90093C44.9018 4.6345 44.8352 4.34703 44.8352 4.04554V4.03853C44.8352 3.73704 44.9018 3.44958 45.0184 3.18315C45.3347 3.08499 45.6761 3.0289 46.0341 3.0289C46.3921 3.0289 46.7335 3.08499 47.0499 3.18315C47.1665 3.44958 47.2331 3.73704 47.2331 4.04554Z" fill="#FF4A00"/>
</svg>
