<svg width="76" height="32" viewBox="0 0 76 32" fill="none" xmlns="http://www.w3.org/2000/svg">
<path fill-rule="evenodd" clip-rule="evenodd" d="M13.4146 8H1.80921C1.32979 8 0.869969 8.18862 0.530746 8.52443C0.191524 8.86025 0.000639858 9.31579 2.12466e-05 9.79101V21.2764C-0.00113086 21.512 0.0445831 21.7456 0.13455 21.9637C0.224517 22.1818 0.356972 22.3802 0.524344 22.5476C0.691716 22.715 0.890723 22.848 1.10999 22.939C1.32925 23.0301 1.56448 23.0775 1.80221 23.0784H13.4161C13.6537 23.0781 13.889 23.0314 14.1084 22.941C14.3278 22.8506 14.5271 22.7183 14.695 22.5515C14.8628 22.3847 14.9958 22.1868 15.0864 21.9691C15.1771 21.7513 15.2236 21.518 15.2232 21.2824V9.79101C15.2226 9.31589 15.0318 8.86043 14.6927 8.52464C14.3536 8.18884 13.8939 8.00015 13.4146 8V8ZM6.56564 18.8606C6.56495 19.0196 6.50059 19.1718 6.38671 19.2837C6.27284 19.3957 6.11878 19.4582 5.95839 19.4576H3.41969C3.26043 19.4568 3.10796 19.3936 2.99559 19.2817C2.88322 19.1699 2.8201 19.0185 2.82003 18.8606V11.3793C2.81995 11.2213 2.88302 11.0698 2.99542 10.9579C3.10782 10.846 3.26038 10.7829 3.41969 10.7823H5.95606C6.11561 10.7829 6.26844 10.846 6.38126 10.9578C6.49408 11.0696 6.55773 11.2211 6.55835 11.3793L6.56564 18.8606ZM12.4172 15.4255C12.4172 15.5839 12.3538 15.7358 12.2408 15.8478C12.1279 15.9598 11.9747 16.0227 11.8149 16.0228H9.27155C9.11195 16.0222 8.95907 15.9591 8.84625 15.8472C8.73342 15.7353 8.6698 15.5837 8.66927 15.4255V11.3793C8.66988 11.2211 8.73353 11.0696 8.84635 10.9578C8.95917 10.846 9.11201 10.7829 9.27155 10.7823H11.8076C11.967 10.7828 12.1196 10.8459 12.2321 10.9578C12.3446 11.0698 12.4077 11.2213 12.4076 11.3793L12.4172 15.4255Z" fill="url(#paint0_linear_25949_1278)"/>
<path d="M31.5413 9.10449V12.0204H28.0566V23.0782H24.6962V12.0204H21.2114V9.10449H31.5413Z" fill="#293856"/>
<path d="M35.8175 23.0791H32.7109V12.2017H35.8175V14.2843C36.4078 12.8169 37.3515 11.9443 39.0317 12.0507V15.2729C36.8368 15.1037 35.8175 15.6354 35.8175 17.3783V23.0791Z" fill="#293856"/>
<path d="M56.0042 23.1631C53.9679 23.1631 52.6875 22.1962 52.6875 19.9094V8H55.8162V19.4831C55.8162 20.1428 56.2539 20.3774 56.7917 20.3774C56.9465 20.3803 57.1013 20.373 57.2551 20.3554V23.0361C56.846 23.1354 56.4251 23.1781 56.0042 23.1631Z" fill="#293856"/>
<path d="M62.5309 23.1631C60.4947 23.1631 59.2119 22.1962 59.2119 19.9094V8H62.3407V19.4831C62.3407 20.1428 62.7819 20.3774 63.3281 20.3774C63.4821 20.3806 63.6362 20.3733 63.7892 20.3554V23.0361C63.3777 23.1363 62.9542 23.179 62.5309 23.1631Z" fill="#293856"/>
<path d="M65.2881 17.6354C65.2881 14.2755 67.2391 11.9766 70.5989 11.9766C73.9588 11.9766 75.8692 14.268 75.8692 17.6354C75.8692 21.0028 73.9378 23.3335 70.5995 23.3335C67.2613 23.3335 65.2881 20.9733 65.2881 17.6354ZM68.334 17.6354C68.334 19.2716 69.0267 20.5698 70.5995 20.5698C72.1724 20.5698 72.826 19.2716 72.826 17.6354C72.826 15.9991 72.1548 14.7345 70.5995 14.7345C69.0442 14.7345 68.334 15.9965 68.334 17.6354Z" fill="#293856"/>
<path d="M43.2258 18.6191C44.0957 18.7138 44.9699 18.7646 45.845 18.7713C48.225 18.7713 50.2344 18.1381 50.2344 15.8539C50.2344 13.6372 48.169 11.9717 45.684 11.9717C42.3384 11.9717 40.1948 14.377 40.1948 17.7369C40.1948 21.2249 42.0431 23.2962 46.2206 23.2962C47.4598 23.3063 48.6902 23.0883 49.8492 22.6535V20.0477C48.7762 20.3884 47.569 20.7269 46.3303 20.7269C44.667 20.7271 43.5077 20.1854 43.2258 18.6191ZM45.6207 14.3455C46.501 14.3455 47.2081 14.9376 47.2081 15.7475C47.2081 16.7888 46.0992 17.1156 44.8208 17.1156C44.277 17.113 43.734 17.0702 43.1966 16.9875C43.2372 16.4796 43.3842 15.9856 43.6282 15.5372C43.8241 15.182 44.112 14.8848 44.4622 14.6764C44.8124 14.468 45.2122 14.3558 45.6207 14.3513V14.3455Z" fill="#293856"/>
<defs>
<linearGradient id="paint0_linear_25949_1278" x1="7.61089" y1="23.0784" x2="7.61089" y2="8" gradientUnits="userSpaceOnUse">
<stop stop-color="#0052CC"/>
<stop offset="1" stop-color="#2684FF"/>
</linearGradient>
</defs>
</svg>
